<svg xmlns="http://www.w3.org/2000/svg" height="512pt" version="1.1" viewBox="0 -1 512.00101 512" width="512pt">
<g id="surface1">
<path d="M 448.703125 63.296875 C 407.886719 22.480469 353.621094 0 295.894531 0 C 238.171875 0 183.902344 22.480469 143.089844 63.296875 C 102.269531 104.113281 79.792969 158.378906 79.792969 216.105469 C 79.792969 260.195312 92.921875 302.257812 117.304688 337.863281 L 11.675781 442.949219 C 4.148438 450.476562 0 460.488281 0 471.136719 C 0 481.785156 4.148438 491.796875 11.675781 499.324219 C 19.453125 507.101562 29.664062 510.984375 39.875 510.984375 C 50.074219 510.984375 60.269531 507.105469 68.023438 499.351562 L 173.59375 394.324219 C 209.3125 418.945312 251.582031 432.207031 295.898438 432.207031 C 353.621094 432.207031 407.886719 409.730469 448.707031 368.910156 C 489.523438 328.09375 512 273.828125 512 216.105469 C 512 158.382812 489.519531 104.113281 448.703125 63.296875 Z M 46.84375 478.113281 C 42.996094 481.960938 36.734375 481.960938 32.886719 478.113281 C 31.023438 476.25 29.996094 473.773438 29.996094 471.136719 C 29.996094 468.5 31.023438 466.023438 32.859375 464.1875 L 136.046875 361.527344 C 138.328125 364.035156 140.675781 366.5 143.085938 368.910156 C 145.34375 371.167969 147.644531 373.359375 149.980469 375.5 Z M 427.492188 347.699219 C 354.929688 420.261719 236.863281 420.265625 164.296875 347.699219 C 91.734375 275.136719 91.734375 157.070312 164.296875 84.507812 C 199.449219 49.355469 246.183594 29.996094 295.894531 29.996094 C 345.605469 29.996094 392.34375 49.355469 427.492188 84.507812 C 500.054688 157.070312 500.054688 275.136719 427.492188 347.699219 Z M 427.492188 347.699219 " style=" stroke:none;fill-rule:nonzero;fill:rgb(0%,0%,0%);fill-opacity:1;" />
<path d="M 412.339844 99.660156 C 381.238281 68.554688 339.882812 51.425781 295.894531 51.425781 C 251.910156 51.425781 210.554688 68.554688 179.449219 99.660156 C 115.242188 163.867188 115.242188 268.34375 179.449219 332.550781 C 210.554688 363.652344 251.910156 380.78125 295.894531 380.78125 C 339.882812 380.78125 381.238281 363.652344 412.339844 332.550781 C 443.445312 301.445312 460.574219 260.089844 460.574219 216.105469 C 460.574219 172.117188 443.445312 130.761719 412.339844 99.660156 Z M 391.132812 311.339844 C 338.617188 363.851562 253.175781 363.851562 200.664062 311.339844 C 148.148438 258.824219 148.148438 173.382812 200.664062 120.871094 C 226.917969 94.613281 261.40625 81.484375 295.894531 81.484375 C 330.386719 81.484375 364.875 94.613281 391.128906 120.871094 C 416.570312 146.308594 430.578125 180.128906 430.578125 216.105469 C 430.578125 252.078125 416.570312 285.902344 391.132812 311.339844 Z M 391.132812 311.339844 " style=" stroke:none;fill-rule:nonzero;fill:rgb(0%,0%,0%);fill-opacity:1;" />
<path d="M 295.894531 150.785156 C 287.613281 150.785156 280.898438 157.5 280.898438 165.78125 L 280.898438 224.679688 C 280.898438 232.960938 287.613281 239.675781 295.894531 239.675781 C 304.179688 239.675781 310.894531 232.960938 310.894531 224.679688 L 310.894531 165.78125 C 310.894531 157.5 304.179688 150.785156 295.894531 150.785156 Z M 295.894531 150.785156 " style=" stroke:none;fill-rule:nonzero;fill:rgb(0%,0%,0%);fill-opacity:1;" />
<path d="M 310.601562 267.5 C 310.5 267.019531 310.382812 266.539062 310.242188 266.070312 C 310.101562 265.597656 309.933594 265.140625 309.742188 264.6875 C 309.5625 264.238281 309.351562 263.789062 309.121094 263.359375 C 308.890625 262.929688 308.632812 262.507812 308.363281 262.097656 C 308.09375 261.691406 307.800781 261.289062 307.492188 260.917969 C 307.183594 260.527344 306.851562 260.167969 306.503906 259.820312 C 306.152344 259.46875 305.792969 259.140625 305.402344 258.828125 C 305.03125 258.519531 304.632812 258.230469 304.222656 257.957031 C 303.8125 257.6875 303.390625 257.429688 302.960938 257.199219 C 302.53125 256.96875 302.082031 256.757812 301.632812 256.578125 C 301.183594 256.390625 300.710938 256.21875 300.253906 256.078125 C 299.78125 255.9375 299.300781 255.820312 298.824219 255.71875 C 298.34375 255.617188 297.851562 255.550781 297.371094 255.5 C 296.394531 255.398438 295.402344 255.398438 294.421875 255.5 C 293.933594 255.550781 293.441406 255.617188 292.964844 255.71875 C 292.484375 255.820312 292.003906 255.941406 291.542969 256.078125 C 291.074219 256.21875 290.613281 256.390625 290.152344 256.578125 C 289.703125 256.757812 289.261719 256.96875 288.832031 257.199219 C 288.402344 257.429688 287.972656 257.6875 287.574219 257.957031 C 287.164062 258.230469 286.765625 258.519531 286.382812 258.828125 C 286.003906 259.140625 285.632812 259.46875 285.292969 259.820312 C 284.945312 260.167969 284.613281 260.527344 284.304688 260.917969 C 283.992188 261.289062 283.695312 261.691406 283.425781 262.097656 C 283.152344 262.507812 282.902344 262.929688 282.675781 263.359375 C 282.445312 263.789062 282.234375 264.238281 282.042969 264.6875 C 281.863281 265.140625 281.695312 265.597656 281.554688 266.070312 C 281.402344 266.539062 281.285156 267.019531 281.195312 267.5 C 281.09375 267.980469 281.023438 268.46875 280.972656 268.949219 C 280.925781 269.4375 280.894531 269.9375 280.894531 270.429688 C 280.894531 270.917969 280.925781 271.40625 280.972656 271.898438 C 281.023438 272.390625 281.09375 272.878906 281.195312 273.359375 C 281.285156 273.835938 281.402344 274.320312 281.554688 274.777344 C 281.695312 275.25 281.863281 275.707031 282.042969 276.160156 C 282.234375 276.617188 282.445312 277.058594 282.675781 277.488281 C 282.902344 277.917969 283.152344 278.347656 283.425781 278.746094 C 283.695312 279.15625 283.992188 279.558594 284.304688 279.9375 C 284.613281 280.316406 284.945312 280.6875 285.292969 281.027344 C 285.632812 281.378906 286.003906 281.707031 286.382812 282.019531 C 286.765625 282.328125 287.164062 282.625 287.574219 282.898438 C 287.972656 283.167969 288.402344 283.417969 288.832031 283.648438 C 289.261719 283.875 289.714844 284.085938 290.164062 284.277344 C 290.613281 284.464844 291.074219 284.628906 291.542969 284.765625 C 292.011719 284.917969 292.484375 285.039062 292.964844 285.125 C 293.441406 285.226562 293.933594 285.296875 294.421875 285.347656 C 294.914062 285.398438 295.402344 285.425781 295.894531 285.425781 C 296.382812 285.425781 296.882812 285.398438 297.371094 285.347656 C 297.851562 285.296875 298.34375 285.226562 298.824219 285.125 C 299.300781 285.035156 299.78125 284.917969 300.253906 284.765625 C 300.710938 284.625 301.183594 284.464844 301.632812 284.277344 C 302.082031 284.085938 302.53125 283.878906 302.960938 283.648438 C 303.390625 283.417969 303.8125 283.167969 304.222656 282.898438 C 304.632812 282.625 305.03125 282.328125 305.402344 282.019531 C 305.792969 281.707031 306.152344 281.375 306.503906 281.027344 C 306.851562 280.6875 307.183594 280.316406 307.492188 279.9375 C 307.800781 279.558594 308.09375 279.15625 308.363281 278.746094 C 308.632812 278.347656 308.890625 277.917969 309.121094 277.488281 C 309.351562 277.058594 309.5625 276.617188 309.742188 276.160156 C 309.933594 275.707031 310.101562 275.25 310.242188 274.777344 C 310.382812 274.320312 310.5 273.839844 310.601562 273.359375 C 310.703125 272.878906 310.773438 272.386719 310.820312 271.898438 C 310.871094 271.410156 310.890625 270.917969 310.890625 270.429688 C 310.890625 269.9375 310.871094 269.4375 310.820312 268.949219 C 310.773438 268.46875 310.703125 267.980469 310.601562 267.5 Z M 310.601562 267.5 " style=" stroke:none;fill-rule:nonzero;fill:rgb(0%,0%,0%);fill-opacity:1;" />
</g>
</svg>